<?xml version="1.0" standalone="no"?><!DOCTYPE svg PUBLIC "-//W3C//DTD SVG 1.1//EN" "http://www.w3.org/Graphics/SVG/1.1/DTD/svg11.dtd"><svg t="1667805036975" class="icon" viewBox="0 0 1024 1024" version="1.1" xmlns="http://www.w3.org/2000/svg" p-id="2730" xmlns:xlink="http://www.w3.org/1999/xlink" width="200" height="200"><path d="M986.048 300.288a51.296 51.296 0 0 0-70.816 15.776c-0.256 0.32-3.84 5.856-10.624 14.624l-305.952-237.44c2.976-3.872 4.992-6.24 5.568-6.976A51.232 51.232 0 1 0 527.264 18.56c-6.656 7.424-138.496 161.088-100.928 368.32 4.672 25.696 11.872 52.224 22.272 79.392l0.032 0.032c8.064 26.784 18.048 54.432 30.08 82.976-26.4-38.464-68.48-84.896-125.984-104.512-201.888 24.896-313.472 195.232-318.912 203.84a51.264 51.264 0 1 0 86.528 55.072c0.16-0.192 1.856-2.784 5.024-7.168l308.832 239.648a51.232 51.232 0 0 0 6.368 70.208 51.264 51.264 0 0 0 72.416-4.544c6.528-7.392 138.784-161.472 100.736-369.184a437.152 437.152 0 0 0-22.208-78.56 850.688 850.688 0 0 0-39.712-105.216 550.976 550.976 0 0 1-6.144-14.624 340.736 340.736 0 0 1-17.44-57.92l127.328 98.72a311.584 311.584 0 0 1-78.688-3.808c-4.256-0.768-8.416-1.376-12.576-2.08 22.176 38.016 55.136 82.112 98.176 107.872 214.752-15.456 333.728-196.992 339.328-205.888a51.232 51.232 0 0 0-15.744-70.848z m-425.6-145.536l294.944 228.896c-7.072 6.432-14.784 12.96-23.04 19.424l-284.416-220.64c4.032-9.856 8.256-19.104 12.512-27.68zM458.752 548.48c7.104 1.28 14.112 2.368 21.056 3.456 2.688 6.464 5.6 12.992 8.544 19.552 13.984 30.944 22.336 60.896 26.56 89.536l-148.192-114.976a308.608 308.608 0 0 1 92.032 2.432z m15.552 327.552l-300.96-233.568c6.848-6.496 14.304-13.184 22.432-19.84l291.744 226.368c-4.256 9.728-8.768 18.816-13.216 27.04z m36.864-99.936l-252.192-195.68c6.848-3.584 13.952-7.04 21.216-10.24l235.072 182.336a314.656 314.656 0 0 1-4.096 23.584z m12.096-494.816a320 320 0 0 1 3.328-24.224l240.832 186.912a310.048 310.048 0 0 1-21.888 9.76L523.264 281.28z" fill="#2c2c2c" p-id="2731"></path></svg>